<svg width="36" height="25" viewBox="0 0 36 25" fill="none" xmlns="http://www.w3.org/2000/svg">
<path d="M35.096 10.5288L31.7067 7.38004L28.7 1.36671C28.4418 0.946839 28.0799 0.600538 27.649 0.361169C27.2181 0.121799 26.7329 -0.00257144 26.24 4.03013e-05H9.29333C8.80045 -0.00257144 8.3152 0.121799 7.88433 0.361169C7.45347 0.600538 7.09151 0.946839 6.83333 1.36671L3.82667 7.38004L0.437334 10.5288C0.299259 10.6569 0.189139 10.8121 0.113881 10.9847C0.0386232 11.1573 -0.000147893 11.3437 4.23928e-07 11.532V23.2334C4.23928e-07 23.5958 0.143988 23.9435 0.400288 24.1998C0.656587 24.4561 1.0042 24.6 1.36667 24.6H6.83333C7.38 24.6 8.2 24.0534 8.2 23.5067V21.8667H27.3333V23.2334C27.3333 23.78 27.88 24.6 28.4267 24.6H34.1667C34.5291 24.6 34.8767 24.4561 35.133 24.1998C35.3893 23.9435 35.5333 23.5958 35.5333 23.2334V11.532C35.5335 11.3437 35.4947 11.1573 35.4195 10.9847C35.3442 10.8121 35.2341 10.6569 35.096 10.5288ZM9.56667 2.73337H25.9667L28.7 8.20004H6.83333L9.56667 2.73337ZM10.9333 15.3067C10.9333 15.8534 10.1133 16.4 9.56667 16.4H3.82667C3.28 16.4 2.73333 15.58 2.73333 15.0334V12.0267C3.00667 11.2067 3.55333 10.66 4.37333 10.9334L9.84 12.0267C10.3867 12.0267 10.9333 12.8467 10.9333 13.3934V15.3067ZM32.8 15.0334C32.8 15.58 32.2533 16.4 31.7067 16.4H25.9667C25.42 16.4 24.6 15.8534 24.6 15.3067V13.3934C24.6 12.8467 25.1467 12.0267 25.6933 12.0267L31.16 10.9334C31.98 10.66 32.5267 11.2067 32.8 12.0267V15.0334Z" fill="white"/>
</svg>
